<?xml version="1.0" encoding="UTF-8" standalone="no"?> <svg width="512" height="512" viewBox="0 0 512 512" fill="none" xmlns="http://www.w3.org/2000/svg">
<path d="M200 360C200.011 370.264 197.821 380.41 193.58 389.756C189.338 399.102 183.142 407.431 175.41 414.18L128 360L171.2 302.4C180.149 309.1 187.412 317.795 192.412 327.794C197.412 337.793 200.01 348.821 200 360V360Z" fill="#57A4FF"/>
<path d="M175.41 414.18C174.05 415.38 172.647 416.52 171.2 417.6C160.503 425.623 147.783 430.508 134.466 431.709C121.149 432.91 107.76 430.379 95.8006 424.399C83.841 418.419 73.7828 409.227 66.7531 397.853C59.7235 386.478 56 373.371 56 360H128L175.41 414.18Z" fill="#57A4FF"/>
<path d="M175.41 414.18C174.05 415.38 172.647 416.52 171.2 417.6L175.41 414.18Z" fill="#57A4FF"/>
<path d="M296.393 288.136C305.23 288.136 312.393 280.973 312.393 272.136C312.393 263.299 305.23 256.136 296.393 256.136C287.557 256.136 280.393 263.299 280.393 272.136C280.393 280.973 287.557 288.136 296.393 288.136Z" fill="#57A4FF"/>
<path d="M329.067 203.73C337.904 203.73 345.067 196.567 345.067 187.73C345.067 178.893 337.904 171.73 329.067 171.73C320.23 171.73 313.067 178.893 313.067 187.73C313.067 196.567 320.23 203.73 329.067 203.73Z" fill="#57A4FF"/>
<path d="M461.227 163.63C480.731 163.63 496.542 147.819 496.542 128.315C496.542 108.811 480.731 93 461.227 93C441.723 93 425.912 108.811 425.912 128.315C425.912 147.819 441.723 163.63 461.227 163.63Z" fill="#57A4FF"/>
<path d="M80 184H48V256H80V184Z" fill="#57A4FF"/>
<path d="M248 184H216V256H248V184Z" fill="#57A4FF"/>
<path d="M192 168H160V256H192V168Z" fill="#57A4FF"/>
<path d="M320 328H224V352H320V328Z" fill="#57A4FF"/>
<path d="M500.85 110.81C496.848 101.747 489.86 94.3311 481.051 89.798C472.242 85.2649 462.145 83.8891 452.444 85.9001C442.744 87.9111 434.026 93.1874 427.745 100.849C421.464 108.51 418 118.093 417.93 128H16C13.8783 128 11.8434 128.843 10.3431 130.343C8.84285 131.843 8 133.878 8 136V376C8 378.122 8.84285 380.157 10.3431 381.657C11.8434 383.157 13.8783 384 16 384H51.68C56.7885 400.24 66.9439 414.427 80.6697 424.498C94.3954 434.569 110.976 439.999 128 439.999C145.024 439.999 161.605 434.569 175.33 424.498C189.056 414.427 199.212 400.24 204.32 384H496C498.122 384 500.157 383.157 501.657 381.657C503.157 380.157 504 378.122 504 376V143.54C504.002 142.186 503.658 140.854 503 139.67C505.63 130.09 504.871 119.895 500.85 110.81V110.81ZM128 424C112.419 423.98 97.3795 418.283 85.6953 407.976C74.0111 397.668 66.4831 383.457 64.52 368H124.25L161.85 413.12C162.065 413.374 162.295 413.615 162.54 413.84C152.245 420.481 140.251 424.009 128 424ZM64.52 352C65.8141 341.682 69.6046 331.835 75.5631 323.312C81.5215 314.789 89.4681 307.848 98.7145 303.089C107.961 298.331 118.228 295.898 128.627 296.003C139.025 296.108 149.241 298.746 158.39 303.69L123.88 352H64.52ZM174.72 403.67C174.548 403.394 174.358 403.13 174.15 402.88L138.1 359.62L171.39 313.01C177.597 318.723 182.61 325.608 186.14 333.27C189.67 340.931 191.647 349.216 191.957 357.646C192.267 366.076 190.903 374.483 187.944 382.383C184.986 390.282 180.491 397.518 174.72 403.67V403.67ZM488 368H207.6C207.86 365.37 208 362.7 208 360C208 338.783 199.571 318.434 184.569 303.431C169.566 288.429 149.217 280 128 280C106.783 280 86.4344 288.429 71.4315 303.431C56.4285 318.434 48 338.783 48 360C48 362.7 48.14 365.37 48.4 368H24V144H420.86C421.09 144.61 421.34 145.22 421.61 145.82C424.569 152.558 429.207 158.425 435.08 162.86L421.55 197.82C416.981 196.174 412.019 195.958 407.325 197.202C402.63 198.445 398.425 201.088 395.27 204.78C395.267 204.78 395.265 204.779 395.263 204.777C395.261 204.775 395.26 204.773 395.26 204.77L353.07 188.44C353.209 183.479 351.809 178.596 349.063 174.462C346.316 170.327 342.358 167.145 337.73 165.35C332.45 163.302 326.616 163.187 321.26 165.026C315.904 166.865 311.371 170.539 308.463 175.399C305.555 180.258 304.459 185.99 305.37 191.579C306.281 197.168 309.14 202.255 313.44 205.94L297.11 248.14C291.411 247.947 285.828 249.777 281.348 253.306C276.869 256.834 273.783 261.834 272.636 267.419C271.489 273.005 272.355 278.816 275.082 283.825C277.808 288.833 282.219 292.715 287.532 294.783C292.846 296.852 298.721 296.973 304.115 295.126C309.51 293.279 314.078 289.583 317.009 284.692C319.94 279.801 321.046 274.031 320.131 268.402C319.216 262.774 316.34 257.651 312.01 253.94C312.02 253.93 312.02 253.93 312.02 253.92L328.36 211.72V211.7C328.61 211.71 328.85 211.73 329.1 211.73C332.553 211.728 335.964 210.978 339.099 209.531C342.234 208.084 345.018 205.976 347.26 203.35C347.27 203.35 347.27 203.36 347.28 203.36L389.47 219.69C389.364 223.292 390.07 226.871 391.535 230.163C393.001 233.454 395.189 236.374 397.936 238.705C400.684 241.036 403.921 242.718 407.407 243.628C410.894 244.537 414.54 244.65 418.076 243.959C421.612 243.267 424.948 241.788 427.834 239.632C430.721 237.476 433.086 234.698 434.752 231.503C436.419 228.309 437.346 224.78 437.463 221.179C437.58 217.578 436.885 213.996 435.43 210.7C435.13 210.04 434.81 209.4 434.46 208.78L449.47 170.01C459.166 172.767 469.522 172.031 478.73 167.93C482.043 166.476 485.158 164.608 488 162.37V368ZM416.71 227.72C415.746 228.17 414.701 228.423 413.638 228.464C412.575 228.505 411.514 228.333 410.518 227.96C409.522 227.586 408.61 227.017 407.837 226.286C407.063 225.556 406.443 224.678 406.012 223.705C405.582 222.732 405.35 221.683 405.33 220.619C405.31 219.555 405.503 218.498 405.897 217.51C406.29 216.521 406.877 215.621 407.623 214.862C408.369 214.103 409.258 213.501 410.24 213.09C411.252 212.635 412.35 212.4 413.46 212.4C415.297 212.395 417.08 213.022 418.51 214.177C419.939 215.331 420.927 216.943 421.308 218.74C421.69 220.537 421.441 222.411 420.603 224.046C419.766 225.681 418.391 226.979 416.71 227.72ZM336.53 190.62C336.054 191.846 335.283 192.935 334.286 193.792C333.289 194.648 332.095 195.246 330.812 195.532C329.529 195.818 328.195 195.783 326.928 195.43C325.662 195.078 324.501 194.419 323.55 193.511C322.599 192.603 321.886 191.475 321.475 190.227C321.063 188.978 320.966 187.647 321.191 186.352C321.417 185.056 321.958 183.837 322.767 182.8C323.576 181.764 324.628 180.943 325.83 180.41C326.849 179.964 327.948 179.733 329.06 179.73C330.048 179.73 331.028 179.913 331.95 180.27C333.928 181.038 335.521 182.558 336.379 184.498C337.238 186.438 337.292 188.64 336.53 190.62V190.62ZM299.63 279.45C298.541 279.93 297.359 280.161 296.169 280.127C294.98 280.092 293.813 279.792 292.754 279.25C291.695 278.707 290.77 277.935 290.047 276.99C289.325 276.044 288.822 274.95 288.576 273.785C288.329 272.621 288.346 271.417 288.624 270.259C288.902 269.102 289.435 268.022 290.184 267.097C290.933 266.172 291.878 265.426 292.952 264.912C294.025 264.399 295.2 264.132 296.39 264.13C297.379 264.129 298.36 264.316 299.28 264.68C300.756 265.25 302.029 266.244 302.939 267.538C303.849 268.832 304.355 270.367 304.392 271.948C304.43 273.529 303.997 275.086 303.15 276.422C302.302 277.757 301.077 278.811 299.63 279.45V279.45ZM472.27 153.3C467.328 155.487 461.848 156.158 456.524 155.23C451.2 154.301 446.27 151.815 442.36 148.085C438.449 144.355 435.732 139.548 434.553 134.274C433.375 129 433.787 123.494 435.737 118.454C437.688 113.414 441.089 109.065 445.512 105.959C449.934 102.852 455.178 101.127 460.581 101.001C465.984 100.876 471.303 102.355 475.865 105.253C480.427 108.15 484.027 112.336 486.21 117.28C487.682 120.557 488.489 124.094 488.584 127.685C488.679 131.277 488.06 134.851 486.763 138.202C485.467 141.552 483.518 144.612 481.03 147.203C478.542 149.795 475.565 151.867 472.27 153.3Z" fill="#004FAC"/>
<path d="M472 296H392C389.878 296 387.843 296.843 386.343 298.343C384.843 299.843 384 301.878 384 304C384 306.122 384.843 308.157 386.343 309.657C387.843 311.157 389.878 312 392 312H472C474.122 312 476.157 311.157 477.657 309.657C479.157 308.157 480 306.122 480 304C480 301.878 479.157 299.843 477.657 298.343C476.157 296.843 474.122 296 472 296Z" fill="#004FAC"/>
<path d="M472 320H416C413.878 320 411.843 320.843 410.343 322.343C408.843 323.843 408 325.878 408 328C408 330.122 408.843 332.157 410.343 333.657C411.843 335.157 413.878 336 416 336H472C474.122 336 476.157 335.157 477.657 333.657C479.157 332.157 480 330.122 480 328C480 325.878 479.157 323.843 477.657 322.343C476.157 320.843 474.122 320 472 320Z" fill="#004FAC"/>
<path d="M472 344H456C453.878 344 451.843 344.843 450.343 346.343C448.843 347.843 448 349.878 448 352C448 354.122 448.843 356.157 450.343 357.657C451.843 359.157 453.878 360 456 360H472C474.122 360 476.157 359.157 477.657 357.657C479.157 356.157 480 354.122 480 352C480 349.878 479.157 347.843 477.657 346.343C476.157 344.843 474.122 344 472 344Z" fill="#004FAC"/>
<path d="M432 344H424C421.878 344 419.843 344.843 418.343 346.343C416.843 347.843 416 349.878 416 352C416 354.122 416.843 356.157 418.343 357.657C419.843 359.157 421.878 360 424 360H432C434.122 360 436.157 359.157 437.657 357.657C439.157 356.157 440 354.122 440 352C440 349.878 439.157 347.843 437.657 346.343C436.157 344.843 434.122 344 432 344Z" fill="#004FAC"/>
<path d="M256 248.07V184C256 181.878 255.157 179.843 253.657 178.343C252.157 176.843 250.122 176 248 176H216C213.878 176 211.843 176.843 210.343 178.343C208.843 179.843 208 181.878 208 184V248H200V168C200 165.878 199.157 163.843 197.657 162.343C196.157 160.843 194.122 160 192 160H160C157.878 160 155.843 160.843 154.343 162.343C152.843 163.843 152 165.878 152 168V248H144V224C144 221.878 143.157 219.843 141.657 218.343C140.157 216.843 138.122 216 136 216H104C101.878 216 99.8434 216.843 98.3431 218.343C96.8429 219.843 96 221.878 96 224V248H88V184C88 181.878 87.1571 179.843 85.6569 178.343C84.1566 176.843 82.1217 176 80 176H48C45.8783 176 43.8434 176.843 42.3431 178.343C40.8429 179.843 40 181.878 40 184V248C37.8783 248 35.8434 248.843 34.3431 250.343C32.8429 251.843 32 253.878 32 256C32 258.122 32.8429 260.157 34.3431 261.657C35.8434 263.157 37.8783 264 40 264H255C257.025 263.986 258.97 263.205 260.442 261.813C261.914 260.421 262.803 258.523 262.93 256.501C263.057 254.48 262.412 252.485 261.126 250.921C259.84 249.356 258.008 248.337 256 248.07ZM72 248H56V192H72V248ZM128 248H112V232H128V248ZM184 248H168V176H184V248ZM240 248H224V192H240V248Z" fill="#004FAC"/>
<path d="M320 320H224C221.878 320 219.843 320.843 218.343 322.343C216.843 323.843 216 325.878 216 328V352C216 354.122 216.843 356.157 218.343 357.657C219.843 359.157 221.878 360 224 360H320C322.122 360 324.157 359.157 325.657 357.657C327.157 356.157 328 354.122 328 352V328C328 325.878 327.157 323.843 325.657 322.343C324.157 320.843 322.122 320 320 320ZM312 344H232V336H312V344Z" fill="#004FAC"/>
</svg>
