<svg xmlns="http://www.w3.org/2000/svg" viewBox="0 0 205 50" width="205" height="50"><polygon points="87.5 35.5 78.4 22.8 69.3 35.5 62.5 35.5 74.9 18.7 63.5 3.2 70.4 3.2 78.5 14.9 86.7 3.2 93.4 3.2 82.1 18.7 94.4 35.5 "></polygon><path d="M117.7 30.5c-2.1 3.2-5.6 5.6-10.6 5.6 -7.8 0-12.7-5.7-12.7-13.3 0-7.6 4.9-13.3 12.6-13.3 4.8 0 8.3 2.3 10.5 5.7l-4 2.9c-1.3-2.3-3.4-3.8-6.3-3.8 -4.5 0-7.2 3.7-7.2 8.6 0 5 2.8 8.6 7.2 8.6 3 0 4.9-1.6 6.4-3.7L117.7 30.5zM145.8 24.1h-19.4c0.2 4.7 3.3 7.2 7.8 7.2 3 0 5.5-1.2 7.4-3.2l3.5 3.3c-2.7 2.8-6.2 4.6-11.1 4.6 -8.6 0-13.3-5.7-13.3-13.2 0-7.6 4.8-13.4 12.8-13.4 7.7 0 12.4 5.5 12.4 12.8C145.9 23.1 145.8 23.7 145.8 24.1zM140.5 20.2c-0.4-4.3-3.3-6.5-7-6.5 -4 0-6.7 2.7-7 6.5H140.5zM174.7 24.1h-19.4c0.2 4.7 3.3 7.2 7.8 7.2 3 0 5.5-1.2 7.4-3.2l3.5 3.3c-2.7 2.8-6.2 4.6-11.1 4.6 -8.6 0-13.3-5.7-13.3-13.2 0-7.6 4.8-13.4 12.8-13.4 7.7 0 12.4 5.5 12.4 12.8C174.8 23.1 174.8 23.7 174.7 24.1zM169.4 20.2c-0.4-4.3-3.3-6.5-7-6.5 -4 0-6.7 2.7-7 6.5H169.4zM198.8 35.5v-3.7c-2.3 3.1-5.3 4.3-8.6 4.3 -7.2 0-11.7-5.8-11.7-13.3 0-7.6 4.5-13.3 11.7-13.3 3.3 0 6.3 1.3 8.6 4.3V0.9h5.4v34.6H198.8zM191.4 14.3c-4.8 0-7.2 3.8-7.2 8.5 0 4.7 2.3 8.5 7.2 8.5 4.9 0 7.4-3.8 7.4-8.5C198.8 18.1 196.3 14.3 191.4 14.3zM156.1 47.3h1.4l1.1-5h-1.4l-0.6 2.8c-0.1 0.7-0.6 1-1.1 1 -0.4 0-0.6-0.2-0.6-0.6 0-0.1 0-0.2 0.1-0.4l0.6-2.9h-1.4l-0.7 3.2c0 0.2-0.1 0.4-0.1 0.6 0 0.7 0.5 1.4 1.4 1.4 0.6 0 1.1-0.2 1.5-0.7L156.1 47.3zM152.5 45.7c0-1.1-1.1-1.4-1.9-1.6 -0.5-0.1-0.7-0.3-0.7-0.5 0-0.3 0.3-0.4 0.7-0.4 0.6 0 1.1 0.3 1.4 0.6l0.9-0.7c-0.4-0.5-1.2-0.9-2.3-0.9 -1.2 0-2.1 0.5-2.1 1.6 0 1.1 1 1.3 1.7 1.6 0.6 0.2 0.9 0.3 0.9 0.6 0 0.3-0.4 0.5-0.8 0.5 -0.6 0-1.2-0.3-1.5-0.8l-1 0.6c0.5 0.8 1.4 1.2 2.5 1.2C151.6 47.4 152.5 46.7 152.5 45.7zM147.3 45.7c0-1.1-1.1-1.4-1.9-1.6 -0.5-0.1-0.7-0.3-0.7-0.5 0-0.3 0.3-0.4 0.7-0.4 0.6 0 1.1 0.3 1.4 0.6l0.9-0.7c-0.4-0.5-1.2-0.9-2.3-0.9 -1.2 0-2.1 0.5-2.1 1.6 0 1.1 1 1.3 1.7 1.6 0.6 0.2 0.9 0.3 0.9 0.6 0 0.3-0.4 0.5-0.8 0.5 -0.6 0-1.2-0.3-1.5-0.8l-1 0.6c0.5 0.8 1.4 1.2 2.5 1.2C146.5 47.4 147.3 46.7 147.3 45.7zM140.3 45.4c-0.1 0.7-0.6 1-1.1 1 -0.4 0-0.7-0.2-0.7-0.6 0-0.5 0.4-0.6 0.9-0.6 0.3-0.1 0.7-0.1 1-0.3L140.3 45.4zM140 42.1c-0.8 0-1.5 0.2-2.2 0.6l0.4 1c0.5-0.3 1.1-0.5 1.6-0.5 0.3 0 0.8 0.1 0.8 0.5 0 0.5-0.7 0.5-1.4 0.6 -0.9 0.1-2.1 0.3-2.1 1.6 0 1 0.7 1.5 1.6 1.5 0.6 0 1.1-0.2 1.5-0.7 0.2 0.5 0.6 0.7 1.1 0.7 0.4 0 0.6-0.1 0.8-0.2l-0.1-0.9c-0.1 0-0.2 0.1-0.3 0.1 -0.2 0-0.3-0.1-0.3-0.3 0-0.1 0-0.2 0.1-0.3l0.3-1.5c0-0.2 0.1-0.4 0.1-0.6C142 42.7 141.2 42.1 140 42.1zM133 45c0-0.8 0.5-1.7 1.3-1.7 0.7 0 1 0.5 1 1.2 0 0.8-0.5 1.6-1.3 1.6C133.3 46.2 133 45.6 133 45zM132.6 46.6c0.4 0.5 0.9 0.8 1.5 0.8 1.5 0 2.7-1.3 2.7-2.9 0-1.3-0.8-2.3-1.9-2.3 -0.6 0-1 0.2-1.4 0.6l0.1-0.5h-1.4l-1.4 6.6h1.4L132.6 46.6zM127.3 47.3l1.1-5H127l-1.1 5H127.3zM128.5 41.6l0.2-1h-1.4l-0.2 1H128.5zM126.3 42.3c-0.1-0.1-0.4-0.2-0.7-0.2 -0.5 0-1 0.3-1.4 0.8l0.2-0.8H123l-1.1 5h1.4l0.5-2.4c0.2-0.7 0.6-1.3 1.3-1.3 0.2 0 0.4 0.1 0.5 0.1L126.3 42.3zM119.5 45.4c-0.1 0.7-0.6 1-1.1 1 -0.4 0-0.7-0.2-0.7-0.6 0-0.5 0.4-0.6 0.9-0.6 0.3-0.1 0.7-0.1 1-0.3L119.5 45.4zM119.2 42.1c-0.8 0-1.5 0.2-2.2 0.6l0.4 1c0.5-0.3 1.1-0.5 1.6-0.5 0.3 0 0.8 0.1 0.8 0.5 0 0.5-0.7 0.5-1.4 0.6 -0.9 0.1-2.1 0.3-2.1 1.6 0 1 0.7 1.5 1.6 1.5 0.6 0 1.1-0.2 1.5-0.7 0.2 0.5 0.6 0.7 1.1 0.7 0.4 0 0.6-0.1 0.8-0.2l-0.1-0.9c-0.1 0-0.2 0.1-0.3 0.1 -0.2 0-0.3-0.1-0.3-0.3 0-0.1 0-0.2 0.1-0.3l0.3-1.5c0-0.2 0.1-0.4 0.1-0.6C121.2 42.7 120.4 42.1 119.2 42.1zM112.2 45c0-0.8 0.5-1.7 1.3-1.7 0.7 0 1 0.5 1 1.2 0 0.8-0.5 1.6-1.3 1.6C112.5 46.2 112.2 45.6 112.2 45zM111.8 46.6c0.4 0.5 0.9 0.8 1.5 0.8 1.5 0 2.7-1.3 2.7-2.9 0-1.3-0.8-2.3-1.9-2.3 -0.6 0-1 0.2-1.4 0.6l0.1-0.5h-1.4l-1.4 6.6h1.4L111.8 46.6z"></path><polyline points="101.6 44.5 60.7 44.5 60.7 45.3 101.6 45.3 "></polyline><polyline points="205 44.5 165.7 44.5 165.7 45.3 205 45.3 "></polyline><rect x="32.3" fill="CurrentColor" width="17.7" height="17.7"></rect><polygon fill="CurrentColor" points="12.5 0 0 0 0 12.5 0 12.5 0 12.5 12.5 25 0 37.5 0 37.5 0 50 12.5 50 12.5 50 12.5 50 12.5 50 12.5 50 25 37.5 37.5 50 37.5 50 50 50 50 37.5 "></polygon></svg>